<svg width="174" height="98" viewBox="0 0 174 98" fill="none" xmlns="http://www.w3.org/2000/svg">
<path d="M6.77362 63.9182H9.31082C12.1196 63.9182 14.2223 64.5932 15.6189 65.9433C17.031 67.2778 17.7371 69.3495 17.7371 72.1582C17.7371 74.967 17.031 77.0464 15.6189 78.3965C14.2223 79.731 12.1196 80.3983 9.31082 80.3983H6.54085C5.45459 80.3983 4.42264 80.2199 3.445 79.8629C2.46737 79.506 1.64491 78.9551 0.977636 78.2103C0.325879 77.4654 0 76.6041 0 75.6265C0 75.1765 0.131903 74.8584 0.39571 74.6722C0.659516 74.4704 0.915564 74.3696 1.16385 74.3696H2.51392C3.19671 74.3696 3.73985 74.7885 4.14331 75.6265C4.65541 76.6662 5.58649 77.1861 6.93656 77.1861H9.19443C10.6376 77.1861 11.6773 76.93 12.3136 76.4179C12.9653 75.8903 13.3222 74.9825 13.3843 73.6945H7.28572C6.99087 73.6945 6.73483 73.5937 6.51757 73.3919C6.31584 73.1747 6.21497 72.9186 6.21497 72.6238V71.6694C6.21497 71.3746 6.31584 71.1263 6.51757 70.9245C6.73483 70.7073 6.99087 70.5987 7.28572 70.5987H13.3843C13.3067 69.3262 12.9498 68.4339 12.3136 67.9218C11.6773 67.3942 10.6376 67.1304 9.19443 67.1304H7.16933C5.81926 67.1304 4.88818 67.6502 4.37609 68.69C3.97262 69.5279 3.42949 69.9469 2.74669 69.9469H1.39662C1.25696 69.9469 1.10954 69.9236 0.954359 69.8771C0.799179 69.815 0.636239 69.6831 0.465541 69.4814C0.310361 69.2641 0.23277 69.0003 0.23277 68.69C0.23277 67.7123 0.558649 66.8511 1.21041 66.1062C1.87768 65.3613 2.70014 64.8104 3.67777 64.4535C4.65541 64.0966 5.68736 63.9182 6.77362 63.9182Z" fill="white"/>
<path d="M34.04 79.2577V73.4152H26.2189V79.2577C26.2189 79.5526 26.1102 79.8009 25.893 80.0026C25.6913 80.2043 25.443 80.3052 25.1481 80.3052H23.0299C22.7351 80.3052 22.479 80.2043 22.2618 80.0026C22.0445 79.7853 21.9359 79.5293 21.9359 79.2345V65.082C21.9359 64.7872 22.0368 64.5389 22.2385 64.3371C22.4557 64.1199 22.7196 64.0113 23.0299 64.0113H25.1481C25.443 64.0113 25.6913 64.1199 25.893 64.3371C26.1102 64.5389 26.2189 64.7872 26.2189 65.082V70.203H34.04V65.082C34.04 64.7872 34.1408 64.5389 34.3426 64.3371C34.5598 64.1199 34.8159 64.0113 35.1107 64.0113H37.2289C37.5393 64.0113 37.7953 64.1199 37.9971 64.3371C38.2143 64.5389 38.3229 64.7872 38.3229 65.082V79.2345C38.3229 79.5293 38.2143 79.7853 37.9971 80.0026C37.7798 80.2043 37.5238 80.3052 37.2289 80.3052H35.1107C34.8159 80.3052 34.5598 80.2043 34.3426 80.0026C34.1408 79.8009 34.04 79.5526 34.04 79.2577Z" fill="white"/>
<path d="M57.6138 64.0113C57.9086 64.0113 58.1569 64.1199 58.3587 64.3371C58.5759 64.5389 58.6845 64.7872 58.6845 65.082V66.1528C58.6845 66.4476 58.5759 66.7036 58.3587 66.9209C58.1569 67.1226 57.9086 67.2235 57.6138 67.2235H47.721V70.5288H56.2404C56.5353 70.5288 56.7836 70.6375 56.9853 70.8547C57.2026 71.0565 57.3112 71.3047 57.3112 71.5996V72.6703C57.3112 72.9652 57.2026 73.2212 56.9853 73.4385C56.7836 73.6402 56.5353 73.7411 56.2404 73.7411H47.721V77.093H57.5905C57.8854 77.093 58.1336 77.1938 58.3354 77.3956C58.5371 77.5973 58.638 77.8456 58.638 78.1404V79.2345C58.638 79.5293 58.5294 79.7853 58.3121 80.0026C58.1104 80.2043 57.8621 80.3052 57.5672 80.3052H44.5088C44.214 80.3052 43.9579 80.2043 43.7407 80.0026C43.5389 79.7853 43.4381 79.5215 43.4381 79.2112V65.0587C43.4381 64.7639 43.5389 64.5156 43.7407 64.3139C43.9579 64.1121 44.214 64.0113 44.5088 64.0113H57.6138Z" fill="white"/>
<path d="M71.0706 67.2235H66.9273V73.4617H71.0706C72.3431 73.4617 73.3052 73.2523 73.957 72.8333C74.6243 72.3988 74.9579 71.5685 74.9579 70.3426C74.9579 69.1167 74.6243 68.2942 73.957 67.8753C73.3052 67.4408 72.3431 67.2235 71.0706 67.2235ZM63.6918 64.0113H72.3742C76.952 64.0113 79.2409 66.1217 79.2409 70.3426C79.2409 74.5635 76.952 76.674 72.3742 76.674H66.9273V79.2345C66.9273 79.5293 66.8187 79.7853 66.6015 80.0026C66.3997 80.2043 66.1514 80.3052 65.8566 80.3052H63.7151C63.4203 80.3052 63.1642 80.2043 62.947 80.0026C62.7452 79.7853 62.6444 79.5293 62.6444 79.2345V65.082C62.6444 64.7872 62.7452 64.5389 62.947 64.3371C63.1487 64.1199 63.397 64.0113 63.6918 64.0113Z" fill="white"/>
<path d="M83.1918 79.2577V65.082C83.1918 64.7716 83.2927 64.5156 83.4944 64.3139C83.6962 64.1121 83.9522 64.0113 84.2626 64.0113H95.2493C95.5597 64.0113 95.8157 64.1121 96.0175 64.3139C96.2192 64.5156 96.3201 64.7716 96.3201 65.082V66.1528C96.3201 66.4631 96.2192 66.7192 96.0175 66.9209C95.8157 67.1226 95.5597 67.2235 95.2493 67.2235H87.4748V79.2577C87.4748 79.5526 87.3662 79.8009 87.1489 80.0026C86.9472 80.2043 86.6989 80.3052 86.404 80.3052H84.2626C83.9677 80.3052 83.7117 80.2043 83.4944 80.0026C83.2927 79.8009 83.1918 79.5526 83.1918 79.2577Z" fill="white"/>
<path d="M111.247 68.108C110.487 67.1925 109.253 66.7347 107.546 66.7347C105.839 66.7347 104.598 67.1925 103.822 68.108C103.061 69.0081 102.681 70.3581 102.681 72.1582C102.681 73.9583 103.061 75.3162 103.822 76.2317C104.598 77.1318 105.839 77.5818 107.546 77.5818C109.253 77.5818 110.487 77.1318 111.247 76.2317C112.023 75.3162 112.411 73.9583 112.411 72.1582C112.411 70.3581 112.023 69.0081 111.247 68.108ZM100.726 78.6293C99.1742 77.2637 98.3983 75.1067 98.3983 72.1582C98.3983 69.2098 99.1742 67.0606 100.726 65.7105C102.278 64.3449 104.551 63.6621 107.546 63.6621C110.541 63.6621 112.815 64.3449 114.366 65.7105C115.918 67.0606 116.694 69.2098 116.694 72.1582C116.694 75.1067 115.918 77.2637 114.366 78.6293C112.815 79.9793 110.541 80.6544 107.546 80.6544C104.551 80.6544 102.278 79.9793 100.726 78.6293Z" fill="white"/>
<path d="M119.846 64.0113H134.278C134.589 64.0113 134.845 64.1121 135.046 64.3139C135.248 64.5156 135.349 64.7716 135.349 65.082V66.1528C135.349 66.4631 135.248 66.7192 135.046 66.9209C134.845 67.1226 134.589 67.2235 134.278 67.2235H129.204V79.2577C129.204 79.5526 129.095 79.8009 128.878 80.0026C128.676 80.2043 128.428 80.3052 128.133 80.3052H125.992C125.697 80.3052 125.441 80.2043 125.223 80.0026C125.022 79.8009 124.921 79.5526 124.921 79.2577V67.2235H119.846C119.536 67.2235 119.28 67.1226 119.078 66.9209C118.877 66.7192 118.776 66.4631 118.776 66.1528V65.082C118.776 64.7716 118.877 64.5156 119.078 64.3139C119.28 64.1121 119.536 64.0113 119.846 64.0113Z" fill="white"/>
<path d="M153.259 64.0113C153.554 64.0113 153.802 64.1199 154.004 64.3371C154.221 64.5389 154.33 64.7872 154.33 65.082V66.1528C154.33 66.4476 154.221 66.7036 154.004 66.9209C153.802 67.1226 153.554 67.2235 153.259 67.2235H143.366V70.5288H151.885C152.18 70.5288 152.429 70.6375 152.63 70.8547C152.848 71.0565 152.956 71.3047 152.956 71.5996V72.6703C152.956 72.9652 152.848 73.2212 152.63 73.4385C152.429 73.6402 152.18 73.7411 151.885 73.7411H143.366V77.093H153.236C153.53 77.093 153.779 77.1938 153.98 77.3956C154.182 77.5973 154.283 77.8456 154.283 78.1404V79.2345C154.283 79.5293 154.174 79.7853 153.957 80.0026C153.755 80.2043 153.507 80.3052 153.212 80.3052H140.154C139.859 80.3052 139.603 80.2043 139.386 80.0026C139.184 79.7853 139.083 79.5215 139.083 79.2112V65.0587C139.083 64.7639 139.184 64.5156 139.386 64.3139C139.603 64.1121 139.859 64.0113 140.154 64.0113H153.259Z" fill="white"/>
<path d="M162.27 65.082L165.389 69.0391L168.508 65.082C169.067 64.3682 169.726 64.0113 170.487 64.0113H172.931C173.241 64.0113 173.435 64.1199 173.513 64.3371C173.606 64.5544 173.544 64.8027 173.326 65.082L167.926 71.9255L173.652 79.2345C173.869 79.5138 173.932 79.7621 173.838 79.9793C173.761 80.1966 173.567 80.3052 173.257 80.3052H170.836C170.075 80.3052 169.416 79.9483 168.857 79.2345L165.389 74.8118L161.921 79.2345C161.362 79.9483 160.702 80.3052 159.942 80.3052H157.521C157.211 80.3052 157.009 80.1966 156.916 79.9793C156.838 79.7621 156.908 79.5138 157.126 79.2345L162.852 71.9255L157.451 65.082C157.234 64.8027 157.164 64.5544 157.242 64.3371C157.335 64.1199 157.537 64.0113 157.847 64.0113H160.291C161.052 64.0113 161.711 64.3682 162.27 65.082Z" fill="white"/>
<path d="M4.37105 90.6741V91.7069H1.69204V96.5991H0.439327V90.6741H4.37105Z" fill="white"/>
<path d="M6.1508 96.5991V90.6741H10.1433V91.7069H7.40351V93.1187H9.93786V94.1516H7.40351V95.5663H10.1548V96.5991H6.1508Z" fill="white"/>
<path d="M12.1169 96.5991V90.6741H13.3696V93.1187H15.9126V90.6741H17.1624V96.5991H15.9126V94.1516H13.3696V96.5991H12.1169Z" fill="white"/>
<path d="M19.1729 96.5991V90.6741H23.1654V91.7069H20.4256V93.1187H22.96V94.1516H20.4256V95.5663H23.1769V96.5991H19.1729Z" fill="white"/>
<path d="M25.139 96.5991V90.6741H27.4766C27.926 90.6741 28.3088 90.7599 28.6251 90.9316C28.9415 91.1013 29.1825 91.3376 29.3484 91.6404C29.5162 91.9412 29.6001 92.2884 29.6001 92.6819C29.6001 93.0753 29.5153 93.4225 29.3455 93.7234C29.1758 94.0243 28.9299 94.2586 28.6078 94.4264C28.2876 94.5942 27.8999 94.6781 27.4448 94.6781H25.9548V93.6742H27.2422C27.4833 93.6742 27.682 93.6327 27.8382 93.5498C27.9964 93.4649 28.114 93.3483 28.1912 93.1997C28.2703 93.0493 28.3098 92.8767 28.3098 92.6819C28.3098 92.4851 28.2703 92.3135 28.1912 92.1669C28.114 92.0184 27.9964 91.9036 27.8382 91.8226C27.6801 91.7397 27.4795 91.6982 27.2365 91.6982H26.3917V96.5991H25.139Z" fill="white"/>
<path d="M31.7285 96.5991H30.3861L32.4315 90.6741H34.0459L36.0884 96.5991H34.746L33.2618 92.028H33.2155L31.7285 96.5991ZM31.6446 94.2702H34.8154V95.2481H31.6446V94.2702Z" fill="white"/>
<path d="M43.4873 95.5981L43.4149 97.9994H42.223V96.5991H41.8064V95.5981H43.4873ZM37.7792 96.5991V90.6741H38.9827V95.5923H41.4476V90.6741H42.6656V96.5991H37.7792Z" fill="white"/>
<path d="M45.2251 90.6741H46.4749V94.4004H46.5241L49.0844 90.6741H50.1809V96.5991H48.9282V92.8699H48.8848L46.31 96.5991H45.2251V90.6741Z" fill="white"/>
<path d="M56.7415 96.5991H55.4917V91.6982H54.6469C54.4058 91.6982 54.2052 91.7339 54.0452 91.8053C53.887 91.8747 53.7684 91.9769 53.6893 92.1119C53.6102 92.247 53.5707 92.4128 53.5707 92.6096C53.5707 92.8044 53.6102 92.9673 53.6893 93.0985C53.7684 93.2296 53.887 93.328 54.0452 93.3936C54.2033 93.4592 54.402 93.4919 54.6411 93.4919H56.0009V94.4987H54.4386C53.9854 94.4987 53.5977 94.4235 53.2756 94.2731C52.9535 94.1226 52.7076 93.9066 52.5379 93.625C52.3681 93.3415 52.2833 93.003 52.2833 92.6096C52.2833 92.218 52.3662 91.8776 52.5321 91.5883C52.6999 91.297 52.9419 91.0724 53.2582 90.9142C53.5765 90.7541 53.9593 90.6741 54.4068 90.6741H56.7415V96.5991ZM53.5447 93.9028H54.8957L53.455 96.5991H52.0721L53.5447 93.9028Z" fill="white"/>
<path d="M61.6116 90.6741H62.8614V94.4004H62.9106L65.471 90.6741H66.5675V96.5991H65.3148V92.8699H65.2714L62.6965 96.5991H61.6116V90.6741Z" fill="white"/>
<path d="M76.4802 90.6741V96.5991H75.242V91.6924H72.8465V96.5991H71.6082V90.6741H76.4802Z" fill="white"/>
<path d="M84.0953 93.6366C84.0953 94.2827 83.9729 94.8324 83.7279 95.2857C83.4849 95.7389 83.1532 96.0851 82.7327 96.3243C82.3142 96.5615 81.8435 96.6801 81.3209 96.6801C80.7943 96.6801 80.3218 96.5606 79.9032 96.3214C79.4847 96.0822 79.1539 95.736 78.9109 95.2828C78.6679 94.8295 78.5464 94.2808 78.5464 93.6366C78.5464 92.9905 78.6679 92.4408 78.9109 91.9875C79.1539 91.5343 79.4847 91.189 79.9032 90.9518C80.3218 90.7126 80.7943 90.5931 81.3209 90.5931C81.8435 90.5931 82.3142 90.7126 82.7327 90.9518C83.1532 91.189 83.4849 91.5343 83.7279 91.9875C83.9729 92.4408 84.0953 92.9905 84.0953 93.6366ZM82.8253 93.6366C82.8253 93.2181 82.7626 92.8651 82.6372 92.5777C82.5138 92.2903 82.3392 92.0724 82.1136 91.9239C81.8879 91.7754 81.6237 91.7011 81.3209 91.7011C81.0181 91.7011 80.7538 91.7754 80.5282 91.9239C80.3025 92.0724 80.127 92.2903 80.0016 92.5777C79.8782 92.8651 79.8164 93.2181 79.8164 93.6366C79.8164 94.0551 79.8782 94.4081 80.0016 94.6955C80.127 94.9829 80.3025 95.2008 80.5282 95.3493C80.7538 95.4978 81.0181 95.5721 81.3209 95.5721C81.6237 95.5721 81.8879 95.4978 82.1136 95.3493C82.3392 95.2008 82.5138 94.9829 82.6372 94.6955C82.7626 94.4081 82.8253 94.0551 82.8253 93.6366Z" fill="white"/>
<path d="M91.2288 92.7484H89.9616C89.9385 92.5845 89.8912 92.4389 89.8198 92.3116C89.7485 92.1823 89.6569 92.0724 89.545 91.9817C89.4331 91.8911 89.3039 91.8217 89.1573 91.7734C89.0127 91.7252 88.8555 91.7011 88.6857 91.7011C88.3791 91.7011 88.1119 91.7773 87.8843 91.9297C87.6568 92.0801 87.4803 92.3 87.3549 92.5893C87.2296 92.8767 87.1669 93.2258 87.1669 93.6366C87.1669 94.059 87.2296 94.4139 87.3549 94.7013C87.4822 94.9886 87.6597 95.2056 87.8872 95.3522C88.1148 95.4988 88.3781 95.5721 88.6771 95.5721C88.8449 95.5721 89.0001 95.5499 89.1428 95.5055C89.2875 95.4612 89.4158 95.3966 89.5276 95.3117C89.6395 95.2249 89.7321 95.1198 89.8054 94.9964C89.8806 94.8729 89.9327 94.7321 89.9616 94.574L91.2288 94.5798C91.196 94.8517 91.114 95.114 90.9829 95.3667C90.8536 95.6174 90.6791 95.8421 90.4592 96.0408C90.2413 96.2375 89.9809 96.3937 89.6781 96.5094C89.3772 96.6232 89.0368 96.6801 88.6568 96.6801C88.1283 96.6801 87.6558 96.5606 87.2392 96.3214C86.8245 96.0822 86.4966 95.736 86.2555 95.2828C86.0164 94.8295 85.8968 94.2808 85.8968 93.6366C85.8968 92.9905 86.0183 92.4408 86.2613 91.9875C86.5043 91.5343 86.8342 91.189 87.2508 90.9518C87.6674 90.7126 88.1361 90.5931 88.6568 90.5931C89.0001 90.5931 89.3184 90.6413 89.6115 90.7377C89.9066 90.8342 90.168 90.975 90.3956 91.1601C90.6231 91.3433 90.8083 91.568 90.951 91.8342C91.0957 92.1004 91.1883 92.4051 91.2288 92.7484Z" fill="white"/>
<path d="M92.8791 91.7069V90.6741H97.7452V91.7069H95.9313V96.5991H94.693V91.7069H92.8791Z" fill="white"/>
<path d="M99.8215 96.5991H98.4791L100.525 90.6741H102.139L104.181 96.5991H102.839L101.355 92.028H101.309L99.8215 96.5991ZM99.7376 94.2702H102.908V95.2481H99.7376V94.2702Z" fill="white"/>
<path d="M105.872 96.5991V90.6741H108.245C108.68 90.6741 109.044 90.7387 109.335 90.8679C109.626 90.9971 109.845 91.1765 109.992 91.406C110.139 91.6336 110.212 91.8959 110.212 92.1929C110.212 92.4244 110.166 92.6279 110.073 92.8034C109.98 92.977 109.853 93.1197 109.691 93.2316C109.531 93.3415 109.348 93.4196 109.141 93.4659V93.5238C109.367 93.5334 109.578 93.5971 109.775 93.7147C109.974 93.8324 110.135 93.9973 110.258 94.2094C110.382 94.4197 110.443 94.6704 110.443 94.9616C110.443 95.276 110.365 95.5567 110.209 95.8035C110.055 96.0485 109.826 96.2423 109.523 96.385C109.22 96.5278 108.847 96.5991 108.404 96.5991H105.872ZM107.125 95.575H108.146C108.495 95.575 108.75 95.5084 108.91 95.3754C109.07 95.2403 109.15 95.061 109.15 94.8372C109.15 94.6733 109.111 94.5286 109.031 94.4033C108.952 94.2779 108.84 94.1795 108.693 94.1082C108.548 94.0368 108.376 94.0011 108.175 94.0011H107.125V95.575ZM107.125 93.1535H108.054C108.225 93.1535 108.378 93.1236 108.511 93.0638C108.646 93.002 108.752 92.9153 108.829 92.8034C108.908 92.6915 108.948 92.5575 108.948 92.4012C108.948 92.1872 108.871 92.0145 108.719 91.8834C108.569 91.7522 108.354 91.6867 108.077 91.6867H107.125V93.1535Z" fill="white"/>
<path d="M115.821 96.5991L113.917 94.0735H113.489V96.5991H112.236V90.6741H113.489V93.0406H113.741L115.708 90.6741H117.267L114.956 93.4225L117.374 96.5991H115.821Z" fill="white"/>
<path d="M120.003 96.5991H118.661L120.706 90.6741H122.32L124.363 96.5991H123.021L121.536 92.028H121.49L120.003 96.5991ZM119.919 94.2702H123.09V95.2481H119.919V94.2702Z" fill="white"/>
<path d="M133.138 93.1997V94.2036H130.583V93.1997H133.138ZM128.819 94.6579H130.066C130.087 94.9973 130.193 95.2529 130.384 95.4245C130.575 95.5962 130.857 95.682 131.231 95.682C131.536 95.682 131.778 95.6107 131.958 95.4679C132.137 95.3252 132.266 95.1198 132.345 94.8517C132.424 94.5817 132.464 94.2586 132.464 93.8825V93.4023C132.464 93.0146 132.419 92.6877 132.328 92.4215C132.239 92.1534 132.103 91.9509 131.92 91.8139C131.739 91.677 131.506 91.6085 131.223 91.6085C130.943 91.6085 130.721 91.651 130.557 91.7358C130.393 91.8207 130.274 91.9422 130.199 92.1004C130.123 92.2566 130.077 92.4456 130.06 92.6674H128.813C128.851 92.2778 128.963 91.9268 129.148 91.6143C129.336 91.2999 129.601 91.0511 129.944 90.8679C130.289 90.6847 130.716 90.5931 131.223 90.5931C131.726 90.5931 132.163 90.7078 132.533 90.9373C132.904 91.1669 133.19 91.4918 133.393 91.9123C133.595 92.3328 133.696 92.8304 133.696 93.4052V93.8854C133.696 94.4602 133.597 94.9568 133.398 95.3754C133.202 95.792 132.919 96.1141 132.551 96.3416C132.182 96.5673 131.743 96.6801 131.231 96.6801C130.743 96.6801 130.325 96.5953 129.976 96.4255C129.627 96.2539 129.354 96.0167 129.157 95.7138C128.96 95.4091 128.848 95.0571 128.819 94.6579Z" fill="white"/>
<path d="M135.599 96.5991V90.6741H136.852V93.1187H139.395V90.6741H140.645V96.5991H139.395V94.1516H136.852V96.5991H135.599Z" fill="white"/>
<path d="M142.655 96.5991V90.6741H146.648V91.7069H143.908V93.1187H146.442V94.1516H143.908V95.5663H146.659V96.5991H142.655Z" fill="white"/>
<path d="M148.621 96.5991V90.6741H150.959C151.408 90.6741 151.791 90.7599 152.107 90.9316C152.424 91.1013 152.665 91.3376 152.831 91.6404C152.998 91.9412 153.082 92.2884 153.082 92.6819C153.082 93.0753 152.997 93.4225 152.828 93.7234C152.658 94.0243 152.412 94.2586 152.09 94.4264C151.77 94.5942 151.382 94.6781 150.927 94.6781H149.437V93.6742H150.724C150.966 93.6742 151.164 93.6327 151.32 93.5498C151.479 93.4649 151.596 93.3483 151.673 93.1997C151.753 93.0493 151.792 92.8767 151.792 92.6819C151.792 92.4851 151.753 92.3135 151.673 92.1669C151.596 92.0184 151.479 91.9036 151.32 91.8226C151.162 91.7397 150.962 91.6982 150.719 91.6982H149.874V96.5991H148.621Z" fill="white"/>
<path d="M158.805 90.6741V91.7069H156.126V96.5991H154.874V90.6741H158.805Z" fill="white"/>
<path d="M160.585 90.6741H161.835V94.4004H161.884L164.445 90.6741H165.541V96.5991H164.288V92.8699H164.245L161.67 96.5991H160.585V90.6741Z" fill="white"/>
<path d="M167.554 90.6741H168.803V94.4004H168.853L171.413 90.6741H172.51V96.5991H171.257V92.8699H171.213L168.639 96.5991H167.554V90.6741Z" fill="white"/>
<circle cx="6.96182" cy="42.9359" r="4.99258" fill="#83D924"/>
<circle cx="6.96182" cy="30.2875" r="4.99258" fill="#83D924"/>
<circle cx="20.2753" cy="30.2875" r="4.99258" fill="#83D924"/>
<circle cx="20.2753" cy="17.641" r="4.99258" fill="#83D924"/>
<circle cx="4.99258" cy="4.99258" r="4.99258" transform="matrix(-1 0 0 1 65.2085 37.9434)" fill="#83D924"/>
<circle cx="4.99258" cy="4.99258" r="4.99258" transform="matrix(-1 0 0 1 65.2085 25.2949)" fill="#83D924"/>
<circle cx="4.99258" cy="4.99258" r="4.99258" transform="matrix(-1 0 0 1 51.895 25.2949)" fill="#83D924"/>
<circle cx="4.99258" cy="4.99258" r="4.99258" transform="matrix(-1 0 0 1 51.895 12.6484)" fill="#83D924"/>
<circle cx="33.5888" cy="17.641" r="4.99258" fill="#83D924"/>
<circle cx="33.5888" cy="4.99258" r="4.99258" fill="#83D924"/>
<circle cx="73.5297" cy="30.2875" r="4.99258" fill="#FB5653"/>
<circle cx="73.5297" cy="17.641" r="4.99258" fill="#FB5653"/>
<circle cx="4.99258" cy="4.99258" r="4.99258" transform="matrix(-1 0 0 1 118.463 37.9434)" fill="#FB5653"/>
<circle cx="4.99258" cy="4.99258" r="4.99258" transform="matrix(-1 0 0 1 118.463 25.2949)" fill="#FB5653"/>
<circle cx="4.99258" cy="4.99258" r="4.99258" transform="matrix(-1 0 0 1 105.149 25.2949)" fill="#FB5653"/>
<circle cx="4.99258" cy="4.99258" r="4.99258" transform="matrix(-1 0 0 1 105.149 12.6484)" fill="#FB5653"/>
<circle cx="86.8432" cy="17.641" r="4.99258" fill="#FB5653"/>
<circle cx="86.8432" cy="4.99258" r="4.99258" fill="#FB5653"/>
<circle cx="126.784" cy="30.2875" r="4.99258" fill="#FEBB5E"/>
<circle cx="126.784" cy="17.641" r="4.99258" fill="#FEBB5E"/>
<circle cx="4.99258" cy="4.99258" r="4.99258" transform="matrix(-1 0 0 1 171.717 37.9434)" fill="#FEBB5E"/>
<circle cx="4.99258" cy="4.99258" r="4.99258" transform="matrix(-1 0 0 1 171.717 25.2949)" fill="#FEBB5E"/>
<circle cx="4.99258" cy="4.99258" r="4.99258" transform="matrix(-1 0 0 1 158.403 25.2949)" fill="#FEBB5E"/>
<circle cx="4.99258" cy="4.99258" r="4.99258" transform="matrix(-1 0 0 1 158.403 12.6484)" fill="#FEBB5E"/>
<circle cx="140.097" cy="17.641" r="4.99258" fill="#FEBB5E"/>
<circle cx="140.097" cy="4.99258" r="4.99258" fill="#FEBB5E"/>
</svg>
